<mxfile host="app.diagrams.net" modified="2024-05-20T09:55:55.717Z" agent="Mozilla/5.0 (Windows NT 10.0; Win64; x64) AppleWebKit/537.36 (KHTML, like Gecko) Chrome/124.0.0.0 Safari/537.36" etag="JMO_4UT8P4oA7cuplbP5" version="24.4.4" type="github">
  <diagram id="C5RBs43oDa-KdzZeNtuy" name="Page-1">
    <mxGraphModel dx="977" dy="479" grid="0" gridSize="10" guides="1" tooltips="1" connect="1" arrows="1" fold="1" page="1" pageScale="1" pageWidth="1400" pageHeight="1400" math="0" shadow="0">
      <root>
        <mxCell id="WIyWlLk6GJQsqaUBKTNV-0" />
        <mxCell id="WIyWlLk6GJQsqaUBKTNV-1" parent="WIyWlLk6GJQsqaUBKTNV-0" />
        <mxCell id="O4sXFlbaif_imBeeRptx-3" value="" style="shape=image;verticalLabelPosition=bottom;labelBackgroundColor=none;verticalAlign=top;aspect=fixed;imageAspect=0;image=data:image/png,iVBORw0KGgoAAAANSUhEUgAAAgAAAAIACAYAAAD0eNT6AAAABHNCSVQICAgIfAhkiAAAAAlwSFlzAAAOxAAADsQBlSsOGwAAABl0RVh0U29mdHdhcmUAd3d3Lmlua3NjYXBlLm9yZ5vuPBoAACAASURBVHic7N15mFxVmT/w7zl3qaW700nIBoSEICEkne5OJ52FEJawKYuOI4KigjIou8yIjg46jtFRfyo6jowjBBdcEyfOOC6IK0YQXDDKGieY9J6l00t1VXUtdz3v748QDCFLL1V1ank/z+OTpLvq3i+xU+e9ZwUYY4wxxhhjjDHGGGOMMcYYY4wxxhhjjDHGGGOMMcYYY4wxxhhjjDHGGGOMMcYYY4wxxhhjjDHGGGOMMcYYY4wxxhhjjDHGGGOMMcYYY4wxxhhjjDHGGGOMMcYYY4wxxhhjjDHGGGOMMcYYY4wxxhhjjDHGGGOMMcYYY4wxxhhjjDHGGGOMMcYYY4wxxhhjjDHGGGOMMcYYY4wxxhhjjDHGGGOMMcYYY4wxxhhjjDHGGGOMMcYYY4wxxhhjjDHGGGOMMcYYY4wxxhhjjDHGGGOMMcYYY4wxxhhjjDHGGGOMMcYYY4wxxhhjjDHGGGOMMcYYY4wxxhhjjDHGGGOMMcYYY4wxxhhjjDHGGGOMMcYYY4wxxhhjjDHGGGOMMcYYY4wxxhhjjDHGGGNMP6E7AGOMHU/ns52z80H+xDAIT5SGnBmGmA5JcaFoBgkjBgoapZBRRRQFAKXCOAAISCkErKNdl0COEDIPUFZAOApIScAjKYaFEr400K9IhZa09pih2bewfWFHqf6bGSs2LgAYYyX19NNP14WhXGxDLFEKr1AqmAfgZCKaRUo0Qqo6UoirUEWIyFBKlc3nlBACUgoFiABSuELInBRiVAqRgpTDEtgDQ/aZJP4s6+RTZ5555vO6MzN2NGXzD4sxVh2eeuKpJsM0VpOiZUrRGaTUPCKcoEhNUUpFVFg+DXqxCSFgGIYnhMgKQyQEyX4YssMAbZeW/YdQuE+0trZmdedktalm/iEyxgpj27ZtVkzEziFB5weKmikMFxBhjgrDxiAMoiDdCSuLaRq+YRgjQog+CLlDgP4AgYdbV7Y+pzsbq25cADDGjoiIjB3P7Vjtu+oiQrBShXQmhWqOF/j13MgXn5CCDMNIS8PYYxjyz1KKX1uw/vvM5Wfu1Z2NVQcuABhj2LVr1yxTRNohaJkK1TLf9drCMJyv6JAJdEQAKRAAUgQiAoFASkERAEUgUlCKoJTS9t9S7QzT9KSU/YYUzxqG8bPY1Ni3Tz/99AHduVjl4QKAsRqzc+fOKZaIrRCglSSwEsBKgOYX+j70QiGg6IUiIQwRHvw1VCBFCFUIFYZQIRcMEyWEgDSkY1lmt5Ty91LKH0YaIg8uXLjQ1Z2NlTcuABirYtu2bbNmNs48AwJnE+Q6CFoB4EwAUne2w4VhiDAIEIbqxV9VGCLwAyilQMTjDmMlpSTDNBOGIZ41DfP7oRl+kScbssNxAcBYFeno6Gg0YZ5DAucKEucRsByAqTvXZBHhhaIgQBAECP0QQRC8WBywY5NSkmmag9KST0hDbG5e1rxFCBHozsX04gKAsQrW19c3PXDoHClxPgHnAmgFYOjOVUoqVPB9H4EfIDj4axBwj8ExSCHJsI1+0zAftw3r84uXL35EdyZWelwAMFZBdu7cN9M2vDWK5NkCdBGANpRhd75uRIQwDOF7PgLPg+/58H0uCo7GMA3fNM0/G9LcNM1v/I9T1p6S152JFR8XAIyVMdpKZt/8vrOIcCmBLgVEK/jf7YT5vg/f9eF7HjzPQxiEuiOVHWlIZVpWp2EY3zNj8jNNTU39ujOx4uAPEsbKTGdn52yhzEsBXCoELgYwTXemanWgl8CD7/jwPBe+z8Pih7Nsa8g0jYfiIv4RPguhunABwJhmRCR7O3rbIHARQbwawFngbn0tFCn4bgDfdeA6Hnzf1x2pbAghYFlmwjTN/zbI+FDTKu4ZqHRcADCmwcD2gfpsxLlcCPwNBC4B4QTdmdjLqTCE67hwXQ+e4/KKg0PYEbvHlMY3jKzxyab1TRndedj4cQHAWIns3bs37jv+haTkVRD0twDqdWdiY0dE8D0fruPA496BFwkpyLbt/7MM87NNK5q+LITgmZYVggsAxoqoo6Oj0RT2q5Wiq4TAJQCiujOxwgiDF3oHnDw8xwfxAQkwLdO1I/ZDgvCPze3NPF+gzHEBwFiBdXV1TZWhfA0JeRVAFwOI6M7EikspBddx4eTycB3egVcIwLLt3aZh/Udze9Pd3CtQnrgAYKwA+vv769yMeyUJ8UYAFwKwdWdiepAiOI4DJ5eH53g13zNgGKZrRczvWXHzH3hJYXnhAoCxSejZ1bNCSXmjIHUNIBp052HlRSkFJ+/AyebgebU9Z0BKSZZt77CjkX9qaj3zB7rzMC4AGBu3nr/0nKYMXCcgrgOwQHceVhnCIEA+m0c+n6/pDYiEELBsa8CwIv+vdcWSf9edp5ZxAcDYGPT19cWUr64gEjfiQBc//9thE+Y5LnLZHJy8ozuKVqZl5WzT/GZsWuwOPr649PhDjLGjICLZ29m7Vgl5rSB6E3jZHiuwg0MEuUwWQQ3vQigNI7Bt84eBDK5vb29P6c5TK7gAYOwwXV1dU6WSbyUh7gDhNN15WG3wXA/Z0Sxcp3Z7BaQhg0gk8j0RabyxpWX+iO481Y4LAMZe0NW1e40I6VYIugq8Xp9pEgYh8tksctl8ze48aBiGsmz7Z7HGyLWLFi0a0p2nWnEBwGpaV1dXVIbyapLyH0DUpjsPYwcpUnCyeWQzOYRBbQ4PGIah7Kj10KgTedO6dWeO6s5TbbgAYDWpo6NvoQRuEKB3AJiuOw9jx+LkXWRHM/A9T3cULaSUgR2xvjKSHblt/fr1tVkNFQEXAKxmEJHo6ey5DDDeBdAF4J9/VmEOzBPI1Oxug4Zp5G3b+mjrytaP685SDfgDkFW97du32/WR+jeSEO8F0KQ7D2OT5Xs+sqOjcPK1WQhYtjUcidjvXLp86WbdWSoZFwCsavX09ExTAW4WEHcAmKM7D2OF5ns+MunRmu0RsKN2hyHla1tXtj6nO0sl4gKAVZ2urq5TocybBehmAI268zBWbL7rIVOjQwNCCopEIg/WTYtfxZsJjQ8XAKxqdHXtXiZCuhOCrgFg6s7DWKl5rofR9Ch8t/YmCxqWkY9EYv/QsqLpft1ZKgUXAKzi9ezqOVsJ8SEBXKw7C2PlwMm7yKRSCGrwzIFINPKX6JTIqxcvXvwX3VnKHRcArGL17Oo5m4T8J4Cu0J2FsUJSpHDwFGFSdNRPagEA4qXflFK++PtcJotMOlNzGwpJISkaj/x384rmNwkheNngUXABwCpOV1ffeUKpDwFive4sjB1KKQUVEpQKQUohDBUUEaBCKCIQEVRIIFIgRS987UBjT6RAVJgcAgJCCgghQEQYTaaRTqYhpQHDkBCGgCFNSEPCMCSkYfz19/LA76uBZVupaDxyZVNr08O6s5QjLgBYxejp6FlHkBsAulB3FlZblFIIwxAqVAiDEKEKoQ7+WSlQeOD75cxzPQz3DyOfyx3/xQIwDAOWZcEwDRimCdMyYJoWTNt88euVQAiBaCz645b25tdwb8BLcQHAyt4LDf+HX9i8h7GCI0UIgwBBECIMA4RBiCAMoYIDjbyi6ulCz6azGB4Ymvzpg0LAti0YpgnLtl78nx2xYVrlNwfXsqykMM3XLl/V8ojuLOWCCwBWtno7elcq0Ce5q58VShAECP3gwK9BeKDBD4Kyf3ovNFKEkaEEkonki3MNCklIAduyYUYs2FEbtm0jEo1oLwyklBSxI99uWdX8ZiFEEf7LKwsXAKzsdHTsPsMAfRSg14N/RtkEHGjcAwR+AN/3EfgBAt/XHavsuK6Lob2DJds/QBoSdsSGHYkgGovAjkZgR+yS3PtQpm0Ox+OxS5a0LvlTyW9eRvjDlZWNrq6uOVIZHyLgBgCW7jysMviej8D3//qrH4AKNZuuRqQSKSQGhw+sOCgxKSUi0SgicRuRaBTReBSGUfz5BdKQKhaLf6J5RdMHin6zMsUFANOuv7+/zs26txPE+wFM0Z2HlScCIfQD+J4P/4UG3/f4qb5QAj/A4L4B5LN53VFg2RYisQii8RiisWhRewmisehzVp15VlNTU6ZoNylTXAAwbbZt22bNnDrzehLiIwBm687DyksYhvBdH77nHfgfP9mXRDqRwrCm3oCjMS0TsboYYnVxxOKxgq9AsCwra0aMS1tXtP66oBcuc1wAMC26d/X9LSR9GoTTdGdh5SEIAnjugcbec7yam5hXTnzPx+C+QTg5/b0BR2JHbcTiccQbYojGYhBi8k2ZEIKi9ZFPtC5vfX8BIlYELgBYSXV27lkkKfwsgEt1Z2H6EAiB58N1fQSeC8/1a263ukqQSqSQGBgu654XIQXidXHE6uOoq6+bdO+AHY38sWF63dm1cLAQFwCsJLq6uqZCmf8kQO8CUPppv0y7IAjgOi5814XreGXdqLC/cvIOBvcMwK+AVRRCCNjRCOoa6lA/pQ6mNbG5xJZtjdTX1a1d1LJoR4EjlhUuAFhREZHs7eh9OwnxUQAzdedhpaNCBc/14LkuHMeF4i79iqVChaH9Q8ikRnVHGRc7YqOuoQ51U+rHPZFQGkYQj9ddt3T54s1FiqcdFwCsaA5s5IP/ALBadxZWfEQE3/Xg5l04rosw4F1Xq81ochRD+wfLaoLgWNlRGw2NDaif0jDmYQIhBGJ18c+2rFh6Z5HjacEFACu4vuf7Tg5N+hSAa8A/Y1UtDEO4jgs378Lz3IpsGNj4uK6L/X37K3ZjpQNnA8RQ33igZ+DQ0xOPJhKJ/GrZ6tYLhRBVNVGFP5xZwRCR6O3ofQcJcTd4PX/V8n0fbt6Fm3cqYlyYFZ4KFQb7B5BNZ3VHmRQhBOrq69AwvQGxePyYr7UjdlcuyLauW7eussZBjoELAFYQfR19zaFQG0HiLN1ZWGER4cA4ft6Bm3d4tj570cjwCJKDI1UxodOO2GiYOgX1jfVH3YnQsqwRUxotrWtad5c4XlFwAcAmpa+vLxZ46n0C4i7w7P6qQURwnRcafcfhrn12VLlMFgN7BqqmMBRCoL6xAY3TGmFHX/6RZpiGY9mx85atbHpCQ7yC4gKATVhnZ++5ksRGgM7UnYVN3oFG34Pr5OHkXFAVHYHLisv3fOzf3Q/P9XRHKahILIIp0xpRP6X+JZsNSUOGsfroVc3Lmv9XY7xJ4wKAjdve5/fOcK3gM4JwLfhnqKIREdy8Ayefh+u4qIKeXKZJGIYY2LO/LM4SKDTDNNA4fSqmTJ0CaRyYNCilpGg8dlPLiqVf1BxvwvjDm41LT2ffW4joswBm6M7CJoZA8BwXTs6Bm3eh+EmfFQoBQ/2DSCfTupMUhZQS9Y0NmDZjGgzTgJSSrGj0fW0rm+/WnW0iuABgY7Jr165ZprDvBfA63VnYxPi+DyebQz7vQIXc6LPiGRkcwchQQneMohFCoGFqAxpPmArLshCLRze0rmz9sO5c48UFADuu7o7uywH5RQAn6s7CxifwA+RzeTj5PMKAd+JjpTOaTGOof6gqVggcjRACdVPqMG3GdEyd3vjx5hXNH9CdaTy4AGBH1dHR0SiF/SlBdKPuLGzsDozru8jnsnCd6pqUxSpLPptD/+7+ql9FcrBHYOac2V9ffd7Kt+rOM1ZcALAj6urqfaVQ+BKAubqzsLHxXA/5bA4OL9tjZcTJO+jv3Vc1ywSPRQiB2XNnP3HB5RdUxPbnXACwl9ixY7AhauY+AyHeDv75KHsqVMjn83Cyed6Vj5Utz3Gxt3dfTRwIJYTAnHlzHl9/6fp1urMcD3/AsxcdWNePrwJYoDsLOzbXcZHLZOG5fKwuqwy+52Ff7z4EfvUfEiWkwInz5/74/Feec5nuLMfCBQA7cGRvZ+87CeJuABM7QJsVHSlCLpdDLpPlCX2sIvm+j309e2uiCJBSYvbcE7+1/rLz3qI7y9FwAVDjOjs7ZwsyvyGAi3VnYUfm+z7ymRzyuTw/7bOKF/gB9vXsrYkhK0MamDNvzmfOe9V579Gd5Ui4AKhhPZ09FxOJbwCYrTsLeylShHwuj3w2C78GnpZYbQl8H3trpCfAMA3MmXvS7ee96pz/1J3lcFwA1KBt27ZZJ0yb+QEB8UEAxz8Mm5VMGITIZrLI53I8k59VtcAPsLdnT00UAaZlYc6C2Rede8G5D+vOciguAGpMV1fXqSI0NkNgje4s7K9830cuk4WTdUDghp/VBt/zsbd7D8IaWB0QrYvR3Hmnz191XnOf7iwH8dNfDenp7HuLUPIZbvzLh5N3kRgYwvD+IeSzeW78WU2xbAsnzjsJhjR0Ryk6J5sX/Xu7u4goojvLQdwDUAN27twZMY3opwTRHbqzMECRgpNzkB3NIgyqv/uTseNx8w729u6tiWGvabOmpy993asadecAuACoen3P950cWuo7IHGW7iy1LgxD5EZzyOWyNfFBx9h45EZz6N+zD7XQCTZ77uw/X3jFhU26c3ABUMV6O3vPUYQtAObozlLLgiBAbjSLXDanOwpjZS2dTGNo36DuGMUnBE4+9aSvnffK896mNYbOm7Pi6e7ovRPAJwGYurPUqsAPkM1keGIfY+OQGBhGcjipO0bRmZaJeQsWvHbNBSu/rysDFwBVZmD7QH0+5nyJCG/QnaVW+X6A7OgonJyjOwpjFWlgz35k0hndMYouXh+nWafNmrF27dqEjvvz02EV6dvVd3pWON8VhGbdWWqR53rIjmbgOq7uKIxVtJknzYLvB3Dz1V1E5zI5kdqb6gVQr+P+vAywSnR39F0WCtomwI1/qbmOi+HBYSQGh7nxZ6wAhBCYc8ocWFb1H00yMjRSt/WhrU/ouDcXAFWgZ1fPHQD9AEBZLC2pFZ7rITGYwMhQAr7r6Y7DWFUxDAOz586GkNU/Uj2we2Dlr372+J2lvm/1/81WMSIyurt2/xuv7y8tz/ORSY3Cc/lpn7Fiy6QyGNi7X3eMootEI2ic2zjjoosuGi7VPXkOQIXasWOwoadz9yYBukJ3lloR+D4yoxme3MdYCdU31sN1HKQSKd1Risp1XATJoBMl7MnlIYAKtHvn7rlRK/couPEvicAPkEyMYGj/EDf+jGlwwqwZiMajumMUXWIoMeWRnzxasmWBPARQYbp3da+FEP8LiFm6s1S7IAiQSfNyPsbKQRAE2NO5u+oPDrIsC7NOnXX2eRee95ti34t7ACpIT2fPVRDyF9z4F5dSCplUGsP7B7nxZ6xMmKaJWSfPghDV/dzq+z4yQ5lfleJeXABUiK6OnruIxH8BiOnOUq2ICJnRLAb7B5AZzYJ48z7GykqsLo7G6VN1xyi61EjK+sUPfvmHYt+HC4AyR0Sie1fv3QLi4+Ahm6IgIuSyOQz1DyKTSvNBPYyVsekzpyMaq/75AEP7B9sff/jxS4p5Dy4Aytj27dvtns6+b0HgPbqzVCvX8TA8MIz0SKrqxxYZqwriwE6BUlZ386XCECODyQeLeY/q/husYP39/XV1sYbvA7hGd5Zq5Ps+hgeHMTI0jMD3dcdhjI2DZVuYPusE3TGKLp1MWb/68SM/Ktb1uUu5DPX19U0PffUgSJylO0u1UUohmx5FLpsH8SA/YxWtv28fcpnqPmbbsi3MmTfnFedcdE5noa/NPQBlprOzc37oqd9w41942cyBCX7ZTI4bf8aqwIwTZ8IwDN0xisr3fGTT2SeLcW0uAMpIX0dfs1TmbwCxSHeWauI6Hob6BzGa5Al+jFUT0zQxfXb1DwUkBkemPPaLxz5c6OtyAVAmund2Lw8FbYXASbqzVIswCDAylDgwzh8EuuMwxoqgobEBsboqXx1NhMF9gx8s9GW5ACgDvR297ZDy5yBUfylbAqQImXQGQ/sH+XhexmrAzBNnVf2pgflsXvzyR798rJDX5AJAs56OnnUKeBjAdN1ZqoGTy2Nw/wAy6VHeyIexGmFaJqbPrP6P0MRA4uwnnnhiTqGuxwWARt27dq8niJ8AmKI7S6ULggCJoQSSiSRUqHTHYYyVWOP0qbCjtu4YReW5HlL7Un8s1PWqu8+kjPV09lxMJL4HIK47SyU7sH1vBtl0RncUxhgAKSVBgIQQR91ZixQZSqmCP4C6eQd7uvcU+rJlRRoGzjht4XnLL1z+6GSvZRYiEBuf7l19lxLRdwFU/36WReTkXYymUggD3sGPsWKQQpIwhCukkZJCDhgGhiDEEED7JGQfGdQjPNGlomq4paWlRwgxru43IjKeeeaZeYYyTlKhmqkEZkPJ0wjqNAGaQ6GaQ0SNoVINYRAe9/MyEouivrEBmdToxP+jy5wKQ+xP7H8IQP1kr8U9ACXW29n7GkXYAiCiO0ulCsMQ6ZE0XIdP6mNssqSQZJgyKw1jn4TcKU3xFEl6KkT4h7a2tm7d+Q71zB+fWUEk1gFiuaJwkQppfhj4M1SoXnyYDcMQfbt6oVT1DgUKIXDKglNuXnfJuo2Tuk6hArHj6+nouYIg/gdAdQ9UFVEuk8NoKs0b+TA2AYZh+IYh90nLeEZK8ZgRGlubVjY9oTvXZG3/4/bTQwqvBOHcIAiWDu4fOmW4f6iq27cpU6f4V7zxikm1JVX9F1ROund1XwAhfwTu9p+QwA+QHknC83jffsbGQgpJhm3tl4Z8Tkqx1YTc0rSiaZfuXKXym5//5k1513mvk8uf6eScSLUtCRZCYO4r5v7DORed87kJX6OQgdiRde/qXgshf4oCjNnUokx6FNnRDC/rY+wYDEMq0zT3SWn+zjDF5qa2pu8LIXgHrBc8/pPHr8y5uY/nsvlX5LM5oxpWC02Z1uhd8YbLJzyczAVAkXXv7F4OKR8GMFV3lkrjex5SiRTv4sfYEQgBGJaVsC3zUUMaDyxpW/LgeCfh1arHH398VpAMvpLJZi7IprOxSv2MmexcAC4Aiqizc88iSeEjAGbrzlJJiAjZ9Cgf2sPYYQxpKNO2ug0pvk8h/VvrmtbdujNVuq1bt5pw8MXcaO4NlVgMNJ7Q6F5+1eUTGlrmAqBI+nb1nR4KehTAibqzVBLP85FKJBFW2D9CxorFMA3fsuw/mKb8/NLlSzfrzlPNtv18W+Ool/3fdCp5bm40Z1TCA4gQAicvmHftuZec/c1xv7cYgWrd7p275wZSPQpgge4slYKf+hn7K8MwAtMyt1uGeX/Tiqb7uGu/9B776WMXZ7PZr6eT6Tl+mU8+bjyhMXf5VZfXjfd9XAAU2M6d+2Za0n8MwBm6s1QKfupn7MAkPsu2nzJN49P8pF8+iMja+tDWh5KJ1AVONl+W2+dLIXHKolPWnn3+2b8dz/t4J8AC6uvri4Ve8D1w4z8mREAmNYpcNstP/axmWbY1ZFrW18yY3NDU1MR7WpcZIYQP4GIAeOShRz6dSqf/PpvKmOX0maVIIZfMfRfjHHLmHoACISKju6Pvu0LgNbqzVILAD5BMJBH45d21xlgxGKbhWRH756aUH1i6fOnTuvOw8Xn84cffmRxO3p0aSUfKZX2yaVlY1H5GfWtra3as7+ECoEC6O3q/AOAW3TkqQXY0+8JxveXxD4exUjFte79lm/e0LF/6CR7Xr3yP/uTRt6dTo/+ZTqZslMHH2YnzTnxs/WXrzxnr67kAKIDuzt73g/Ax3TnKnQpDJBMpeG517cjF2LFIIcmK2NtJinctX9nyC915WOE9+rNH/yUxkPhQLpPTOkcgXh+n177ltWPOwAXAJPV09r2FiL4O/rs8pnwuj3QyBVJlUCYzVgKmaXqmbW2JTYm8a9GiRUO687Die+RHjzw4ODh4ued42jKcsmD+hnNeefaHx/JabrQmoWtn3/lC0k/AJ/sdFZFCOplGPpvXHYWxkjBMw4nY9tcbMg1/v2D9Aj6yssZs37q9fk9q37MjA8Onhqr0R5U3Tm/MX3715fGxvJYLgAnq7OxrkUSPAmjUnaVc+Z6PVGIEQVD6fwSMlZplWynLin66ecXijwkhuKurxj3640ffkhxJfjWTzhilvK+UEnOXzJ2/bt263uO9lguACdi1a9csU0SeAGi+7izlKjOaRSaV1h2DsaIzbSthWtYHlrU336c7Cys/v/zRLx8b6h86O/BLt8/J7Lmz/3ThFReuON7rynJTg3K2bds2y4S9hRv/I1OhwshQght/VvUs08rUTYn/Y/tZy0/gxp8dzQWXX7DulAWnrGlobChZBTCazCwby+u4B2Ccujr7NgqiG3XnKEeu4yCVSEEpXt3EqpdhGk4sFv1cU1vTXdzVz8bj4R8+/NTQvqHWos8NEMC8hfP+Zt0F635wrJdxD8A4dHf23c6N/8sRCKOpUYwMjXDjz6qWaZperC7+ufa1K+qXLl/6T9z4s/G68NUXLjt5/sl3xuKx4v7sEJBN579wvJdxD8AYde/qvgBC/hS8ffJLhGGIZCIJ39W37IWxYhJSUCQSeVBEcM14dllj7Gh+85PfTE9lUn0jQyNjmq0/EZFYBFe+9cpjtvFcAIxBV1fXqUIZfwAwQ3eWcuK5LpKJJFTIT/2sOkWi0U4h6DXLVi3brjsLqz4//+Evnx3at39psfZHOem0eR86/5J1Hzna93kI4Dh27BhsEMp4ENz4v0Qm/UKXPzf+rApZljVS31D3+rbVra/gxp8Vy8WvvqD5pHlzv2JaxelYzo9m7jzW97kAOAYiElEr/3UATbqzlAulFBJDCWTSGd7Ln1UdacgwGq/71Iq1y6cvXb70f3TnYdXvvFedc8PJp518jR21C37tbDpzzH1quAA4hp6uvncDeK3uHOUi8HwMDwzBc3gvf1Z9ItHo/5nxhnnLVi59n+4srLacvf7sb584/8TmeH28oE9VnuvhVz//1TuP9n2eA3AUXV19q4WiRwEUviyrQPlcHumRFD/1s6pjmmberove1rKs6QHdWVhte+KJJ+bs7xzoG02mCzYmMGP2jN2X/O0lpxzpe9wDcAR9fX3ThcJ/gRt/EAiZVBqpRJIbf1ZlBGLx2I8bZGjycQAAIABJREFUZ02Zxo0/KwerVq3qX7q6qWHK9MaCdbNms7mTj/Y97gE4DBHJns6+BwFcqjuLbmEYIjmchO/xEj9WXSzbGjbt6BWtK5b8TncWxg5HROZD3/lxOpVIxiZ7LSEE5i+ev3rtuWufOPx7vKb9MD1dfXeBG3/4noeRYZ7lz6qNQLwu+v3mFc1XCiH4lCpWloQQARFN+fF3fjyaTCSjk7kWESGXzN8HYPnh3+MC4BBdXX3nQdEG3Tl0c3J5pEaS4B5/Vk1M2xw1TPvKlvbmn+vOwtjxvFAENP7oOw+NphOpSQ1H57O55iN9necAvGDXrl2zREibUMNFEdGB8f5kght/Vl0iscjjJ8yZPqttJTf+rHIIIbw5p82eVj+lflK9Vfls/ojtGhcAOLDe3xL2NyBwku4supAiJIdHkBnlnU5Z9TAN062rr39D26pl6xYsWODozsPYeLW3t+dOmH/CSZNZIhgEAR79xWN3Hf51LgAA9Hb0vpOAS3Tn0CUIAgwPDsHl9f2sikSi0c6pDY3zmlc0bdGdhbHJOPvsswdmnzT7rMlsFuRmnbcf/rWaLwC6u7sXkxCf0J1DF8/1kBgYRuCX7KhqxopLAPGGuk1tq1tfcXrr6QO64zBWCGddcNbv586fe7thGhN6v5PLzzv8azVdAGzbts2iUH4NwKSXWlSifDaHxOAwH+HLqoZpGl5dXfzKluVL36w7C2OFtmb9mv+cffLsLUKMfwX/keYB1HQBMHParA8LYKXuHDpkUmmkRlK6YzBWMJGIvathRsPJzSuav6s7C2PFcv6l579hxuwZPeN9XxAEeORnv373oV+r2QKgZ1fP2QS8V3eOUiMiJBNJnuzHqko0Fv1u25q2hYsWLRrSnYWxYrv4tRef2ji10R/v+7y8c/Ohf67JAmDHjsEGEuIbACY2mFKhVKiQGByGk8vrjsJYQRiGVLGG+r9ftqr1St1ZGCulE046od2KjG9SoOO4L5kHUJMFQMzK3wNgge4cpRT4B2b6+964i0bGypJhGI4ds89vXd50j+4sjJXamnPXPDP7xFn3jmc+gJtzX1Ix1NxZAN0d3ZcD8kHdOUrJ83wkhxI82Y9VDdu290yJNyznWf6s1v30uz/dNzwwPGcsrxVCYP7py+euvXDRHqDGegB27BhsEJD36s5RSm7ewQjP9GdVJBKLPtK2Ztk8bvwZAy7520vmx+rGtkkQEcEP+1/cEKimCoComf84AUc8F7ka5bM5JIf5GF9WPeLx2DfbVrWeL4TgipYxHNgueObJs98txdiacy/vverg72umAOjq6lsNgVt05yiVTDqD1EgKBG78WRUQQCwe39CysuVa3VEYKzfrLjjrs1NnTR/TChjP8U4++PuaOPhm+/bttlD0ZdTArH8CIZVI8Ux/VjWkIVUsFn1r84rmb+rOwli5Osmac0Ymmk54jnfM17muFzn4+5ooAOqjU+4iUJPuHMVGREgOJ+E6fOYJqw6GaXiRmH1J8/LmR3RnYZOz+d7N55Og24ioTgr5g+f7n79/w4YNPJRTIC1XtIz86ie/+tK+nn1vP9awr5d3RVdXV3TBggVO1Q8B9OzsWUKgl52CVG2ICCNDI9z4s6ph2ma23qxrblnewo1/hdt036ZXkaCfA3i9EOJSAt17xpwz7tadq9qc/6rz31E/peGYa70VKezr2PdmoMrnABCRJCk2Aogc98UVTCmFxGACnsun+bHqYJpmxojKpYtXL/6L7ixscrZs3NII4Et4eY/zbVu+tGW6hkhVbdqMqW873oRA1/WuAKq8AOjt2n0DgHW6cxSTCkMMDwzD94497sNYpTBtMxWzogvb2tq6dWdhkxdS+CkAJx/hW5EwCC8udZ5qt+7idZumTJ9yzKGVQAXNQBUXAF1dXVOJ6GO6cxRTGAQYGhhGGPBRvqw6WLY13DC9/vSmVU39urOwydt0/6bzCPSOo32fBF1Syjy1YMuWLfbunt3iWMcGB44/G6jiAgDK3ABgpuYURRP4ARKDCagw1B2FsYKwbGtQRsXpfKBPddiwYYME4R4ca8dZwmVbtmyp+tVZpTTSPfKObDYr6hsbjvoa3/djQJUWAD07e5YI0K26cxSL7wdIDA4j5MafVQkrEuk348aCtra2pO4srDAWzl54HQgtx3nZnGA4OK8kgWpESOF1ANDb3QPDOHJt5XmeAVRpAUBSfA6ApTtHMfiex1v7sqpiRexhH3WLWltb+YzqKvHAAw9EIfDhMb78mqKGqSFbtmyxAy9YDgBOzkHD1CP3AgT+gWHjqisAujv6XgfgIt05isFzvQPd/tz4syphWWa6MdawZM2ahWndWVjhRNzIrQJi3vFfCUDgDV/+8peP3l/NxmyoZ+gjoQpfXG3R29MLQ768F0CFCg//9OFzq6oA6OrqigL0ad05isFzPYwMJ3hff1Y1TMvKxaKxFj7Up7ps3LjRAvAP43hLQzSIvqVYeWqJ8tVLJlzms3nUNdYf8bWGiJxfVQWAVOZ7ASzQnaPQ/IONv+LGn1UHwzQ8yzJWL1m+pEd3FlZYU9SUN2Kch64JiHdu2LChqtqjUrvvU/e9yvf9l+2rkEgMQ4iXz8NUKmytmr/w7u7uEwn0Xt05Cs1zPSSGuPFn1UMaMojHY6tbV7Y+pzsLKzwSdOf434TFC09ceGUR4tSMMAw/e6SvDw8MI94Qf9nXyQ9OrZoCAKH8IIA63TEKyXM9JIdGuNufVQ0hJdVH665qamt6SncWVnib7t90HoBlE3mvIPEB7gWYmPs/ff+lvuefOZ73qFDNrIq/7O7u7gUAbtCdo5AONv6KeMIfqx7x+uh7l7Qv+Z7uHKxICNdN4t2tC+cs5LkAE+D7/peOdfR7585OWPZLF8YFYTilKgoAhPKjAGzdMQqFG39WjeLx2MbmtuaqnKTLXlj6R3jdZK4hID7+9a9/vap6covt/s/c/3ee5510vNfF6186DBAGQbTiC4DOzr4WAG/UnaNQPM/HyHCCG39WVaLxyM9aVrbcrDsHK56IE3kNgKmTvMzJVs76YCHy1IIHNjwQdV33nrG8NjGceMmfwzA0K74AEEQfRZXsZ+D7PkaGhnnCH6sqkWjk+WUrl71Sdw5WXEKINxTiOgR69+Z7N7cV4lrVzo27DwZ+MKYek6GBIUTj0Rf/TCHJim44e3b1nC2AV+vOUQhhEGCEZ/uzKmNa5qhdb7XrzsGKa+uGrSaBLijQ5UwS9MBD9zxU1ce4T9a9/3bv1U7euXA874nEDikAiCr7yZmk+KjuDIUQBAGGB4ehQu72Z9VDGlLFGqPnNTU1ZXRnYcW1b86+lZh89/+hWpN28u4CXq+qfPOeb04J8sHXjjXx70gSQ38dBghVKCq2AOjs7L0EhPN155isMAhfONWPG39WPYQAIpHojU1NTU/qzsKKjwQVY/v12zfdu4n3BjiCdC79pyAIosd/5UsNDQwiEjvQsUKqgnsADMIHdGeYLBUqjAzxkb6s+kTjsa+1rmz+su4crDQEiYuLcVkIfGPzfZt5COkQX/jkFx5yXfcVE31/9IVhAEKFFgBdXbvXEHCu7hyTQUQYGRpGEAS6ozBWUJFY5LnW9pa36c7BSuOHG38YB7CmSJePKaj/2fwfm4+7zK0W3Pep+z7sOu6lk7mG53kAKrgHQKiwopeJEBESQwn4Pjf+5UQaIkFCXC+FuNEwpaM7TyUybStr11ln6c7BSicdphejiMevC4h5ZNHPN23cNKNY96gE99597+2O60y67evr6oM0ZGUWAF1du5cBYlIVkE4EQiqRhO96uqOww8TqY9ecde6qr646d9UXI7HIK6WUvCRjHKSUFLMjr+FJf7VFCrmkBLdZAsKPv/WFb00rwb3KzsbPbLzDy3v3kKKXn+ozTqEKEY3FKnQVQKjuAjDpvwRd0iNpOHl+uCw3pmWmmpc1/+zgn1uWtzwaq49+8EinaLEji8SiG5tWNP1Sdw5WYgJNJbpTu5DisVobDth498Y78rn8vytSBfswsiMHOmwqqgDo6Nh9hhCo2Fmho8lR5LM53THYEViW9dDhX2tua/5YNBbbqiNPpYlE7F2t7c236M7BSo9ApegBOGgJWfSrb933rYUlvKc29336vnvyufznCvHkfyjHcQFRYQWAAfU+AIbuHBORzWSRzXDPaHkSME3jU0f6Tkv70kvsaGR/qRNVEsM0PLPOXKc7B9NDCLG4xLdcKCB+t/m+zePaBKeSbNy40br3k/f+Np/Nv3O8a/3HYm/fHkgpK6cA2L1z91wAFXlSlJN3MJpM647BjsKyjOzRjqcVQgQyghWGabilzlUp7Fj8rc3NzVwk1SgiOlHDbacT6CebNm76p2o7Qvjzn/78fG/Y2+M4TrFWVsD3fdgRu3IKgFCqW1GBJ/75no9UIqk7BjsGw7afONb3ly1bticeiV0kpeTdmg4TjcV+2bp8ybd152B6vLBdr67T+0wQ/t8Zs8/4abXMC7j/0/f/s8qrjsAPZhb7XpFIhCqiANi5c2eEQDfozjFewcH9/Yknk5czAfG1472mqb3psUjEvp3nBP6VaRr5QHpVcRYHm5iMkdE/K1/gIrJo+7c2futGosKOlZfK5z/9+flf+MQX/pLNZv81VGFJhrkrZhWALew3AGKW7hzjoZRCcigBpfihsZwJKahlRdO3xvLa1lWt90Zjcd6f/AV23H5re3s7z2qtYQpKfwFwwFRBYuPmjZsf/eb931ypO8xYbdmyxb7v7vu+Ejphh+u6JZ3YmEqlVEUUAEqI23VnGI8Du/yNIAh4i99yZ5jWiBBizDsyta5sfm+8ru47xcxUCaLR6NaWtpaa/3uodYEMpuvOcJh1Usnfb9q4afO37//2GbrDHA0RiS/e/cUP9e/sT+dz+etVqEo+uX1g/4As++6Srq6+1ULR73TnGI9kIgknl9cdg41BJBr9bdvq1rXjfd9Tf3jmd04uv7oYmcqdYRl5YWMGP/2zzfduPp8EletSWSUg/kcp9ck33/rmP+oOAxyYMzFijbw+M5r5VC6f0zpvQUDA1BlgLIRSt1fSvj+Z1Cg3/hVESOPXE3lfa3vz2iefeOY5z3FKvQRKKyEEIjH77S1tLdz4M5Cgcl4dIwl0lZDiqk33bXpCkPhSzs59+4YbbhgtdZCvf/HrC8zAvDGJ5A1CiJnFWNo3EWXdsu7cuW+mJf0+ABHdWcYin8vzjP8KUxeNr2xe3bxtIu/dunWrOSU6dYfveRM+mavSRKL2c22r25p152Dl4dsbv71ckSqLp+sxckB4jAQ9KEP53Wtuu6avWDfadP+mJlJ0hYR8NYHW4pD2NpVKwXH07ggrhSzvGZPdu3r/GQL/qjvHWHiej5HBIfCE/8ohpKTV56yc1DyYnTt3RtJDmR2+551aoFhly5CGsqdYp7e2tnbpzsLKw6b7NzVB4TndOSbhaQL9FgJPSpJ/avQan73sjsvG3avx5S9/uSHuxVdAoF1BtQuItQBOOdrrU8kUHFdvASCkoLIdAiAi0dPZ93e6c4xFGIRIDiW48a8whpSTHqtZuHChu3Xr1oVTY1Ofc11vUSFylatI1P5qS2sLN/7sRaEfuoZRkZuzHtQqIFpBBw5qS9pJf9N9m7oADEBgv4DYp6AGQPAkyTqIA3vRKKh6IcQpIJwE4GT4mE3iwLJ6Ud4d6y8SQoRlWwD0dOw5HwILdOc4HkUKyeERXu5XgaQUBRmvWb9+fUBES57+wzNPO3lnaSGuWW5Myxxtbm9+h+4crLyQpGrb4tQCcAaAMw4WBQcbdBJ/fcITEJjMML4i/e2FlNIt22WAQqq36s4wFulEGr7v647BJsIw+gt1KSGEal3ZsiwSj/5foa5ZLoQQsKKxG4UQ+j+1WFm59uZrBwHwrOdxCkP9S8SlkPmyLAD6+/vriOh1unMcT2Y0AyfPP/uVyhDoLuT1hBDhsvaWpkg89kghr6ubHbH/wtv9siMRQhCAXt05Kk059BgLIUbKsgBwM+6VgGjQneNYnLyLTKrkq0lYAUlDFnw8WwhBbStbzo/Foj8o9LV1EELAEmZFHsLFSoYLgHFQSpXL9vA9ZVkAkMDbdGc4ljAIkBoZ0R2DTVIYFGYOwJG0rmr9m1h99GOVMiHoaCIR+3dLVy39g+4crIwRenRHqCTl0P0PAIYwdpRdAdDZ2TkfEOfpznE0pAiJoRGQKosKjk2CYYpUMa/fuqL1n+vr6/5OGob+/r4JkFJSNBp9k+4crOzt1B2gkpRLAUCSfl92BYBU5nVA+R5SlBpJIQzGvHU8K2MGitcDcFDTiqYHGqbUrTMtU++i3wmIxCI/OLP1TF72x45JQBzzOG32UuUwaVxAoD5S/4Pya2gFyna8MZvhSX/VRJEqybaNi1sW/7YuFl9sWXbFjBtJQwb5IHad7hys/Pl1/h8A8FPRGPmB/gLAMI38W+54S7qsCoDeXb1LcWANZtnxXBeZZEZ3DFZAhjBKtoZ5cdvi7unu1JMi0eiTpbrnZESjke+uWbOw2tZ4syK47rrrshD4s+4clSLw9ddKUso+oMy62kmIK3VnOBIVKiQTSZTLAQ6sMEIKp5TyfgvWL3DaVrcuj9bF/k1KWbY/TNKQyogZt+jOwSoI4fe6I1QCP/DLYgWAYRi/BMqtAAD9re4MhyMQkokRqLAi53GxYyFoOct8WXvLu+vr615pGEZZzguwI9EfNTU1JXTnYJWDQI/pzlAJfE9/9z8AmKF5P1BGBUBXV9epAFp15zhcJjUKz/V0x2BFoEhpKQAAYEnbkp9HptgnRaKR53VlOBIhBRlR8Ja/bFyCIPgReB7Acbme/tOTDdNw337X258EyqgAEGSUXfe/67jIjmZ1x2DFYmCqztu3tLSMtK1edma8Pr5RiPLYL8CORB5ubm7erzsHqyxvvf2twwB+rTtHOVOkyqIHwDKtF+chlU0BAMJrdUc4VBiGSCVKMkmcaaIUpunOAAAtK5pvrquLv8awDK1LTKSUFDGtt+vMwCqXEOJ7ujOUM8/1ymP83zS+ePD3ZVEAdHZ2zgawVneOQ6USybLYr5kVjyDM053hoKUrlv5wDmafEIvHfqwrg2nZzy1ZvoR3dWMTYsD4HiZ1Rl51c50y6P6XRviOO9/x1YN/LosCQCjjtSiTLACQSWd43L8GKKVO1Z3hUKesPSXfurLlsrrG+jeYllny3gArIu8q9T1Z9bj6pqt7AfxOd45yRERlMf5vWua2Q0/1LJNGV1ymO8FBnushO8rr/WsBEc3SneFImpc1bYFNM0rZG2DZ1nBzW/OPSnU/VrW+oDtAOXIcpyy6/2Nm7IOH/ll7AUBbyRQCZbH3v1IKqUSyLP6PYsUXqlDrJMBjaW9vz7WubLks1lB3TSmWC1qWzR/cbNKmelO/A8Kg7hzlJl8GO8jatj18/Xuu//mhX9NeAPSe0rsaQKPuHACQHkmXzUENrPgopKjuDMfTunzpt6fObpwdjUe3FmuhgGEafvOKpo8U5+qsllx2x2UuBL6kO0c5CYKgLPb/N6V53+Ff014AQMiLdEcAgHw2x/v81xillHj298+2685xPAsXLkwvW9l6gRmpP9e27b2Fvr5t2w8LIXgNNysIU5j3AeAnqRdkM/qXkhuG4WMqPnz417UXAARcojtDGIZIJ3nb85pkltfy02NZsbrp18vPaju5vr7uTsMs4LCAMDYU7Fqs5l1909W9JGiT7hzlIAxDOK7+DT8jVuR/brrpppd1Q2gtAHbsGGwAaKXODARCcpjH/WtVEKpzdGcYr6Urln52hnfCtGgs8r9ikmcKWLY13NrexPu4s4KSSv4LAP3T3jXLZPVPKDdMw4+dGDvi/h5aC4C4nV8PwNKZIZvOwvd4yV+tolCdqTvDRCxYv8BZtmrZ6yINVnMkGvnLRK9jWtZ3CpmLMQC45pZruglU03MBwjCEm9dfA9m2/Z/XXXfdEcchtBYASuFinff3PR/ZtP4KjekThMEM3RkmY9myZdvbVi9b1BCvv8qOWPvG814pJcUbo/9SrGystoUUfgTAqO4cuoyOjmo/QdY0zNz0+dPfc7Tv650DIHCBrlsTAakRPuK31qlQyeee+r9X6s4xWU0rm/57+ZrlJ9XVx99oR+0xFQKWbe9auHAhL9liRXHdLdcNCBL/rjuHDp7nwXX1P/1btvWhq6+++qgTMrUVAF1dXVMBaOt+zaTTCHye+MyA0Auq5vS75hXN/7V8ddtJ0Wj8Fsu2R471WsM0P16qXKw2OVHn4wDK6sTLYiMijKb1d3zYlr3v5vfe/OljvUZbASBJrtR1f9/zkMvkdNyalaEgDCpuIuDxLFvdfN+Ks9qmx+OxOy3LfNkSl1gs+ouWFU1f1RCN1ZDrr7/eAXA9gJo5WCWXyyEI9T5cSilVXbTuuEPs2goAUmK1lvsSHej651n/7AW+78363e92TtGdoxhaVrZ8dsXaFY2xhvq/j8Yjj0XjsV/V1cevbV3VqnX+Dasdb7r5Tb8VQtTETpNBECCb1b/uP2JH/v1td75t+/FeZ5YizBEJsUbHwVGZdAaBz3tUsEMQUGc67wDwGd1RiqV1edM9AO7RnYPVJiMw7gqM4AoAp+rOUiwEQiqV0v5wadt2983vu/ndY3mtlh4AIhIAlbwHwPd85MpgVyZWfsIwvFZ3Bsaq1dW3XZ0RJF4HoGq3W82MZhAEerv+DWmEwNhX12kpAPp29Z0GoKTLrwiENHf9s6Pwfb+5a2tX2Z8NwFiluuaWa56EwB26cxSD4zrI5fTOKxNCIFYXu+m2u27bNdb3aCkAlBRrSn3PXDoLn2f9s6MIQyXTUzJj6jZjjE3Mm25605cAfFF3jkIKggDplP6t5KOx6Bfecec7vjye9+gZAhBYVcr7hUGAzChv+MOOTQXq73RnYKzaTfWmvhNAVWw/rZRCMqm/ZzkWiT128z/efNt436elABCKWkt5v9SI/okZrPy5rnNa/9P9s3TnYKyaXXbHZa5pm68G8GfdWSaDiJBMJrUfIW/Z1t7pp00/fyLv1bMMUGBJqW6Vy+TgubzXPxsDAvq9gU/ojsFYtbv6764eNMm8BECn7iwTcbDx9/2XHbBXUpZlDddF65qOtdvfsZS8ANi1a9csADNLcS+lFDJlsCMTqxy+512jOwNjteDqW67eYwpzPQR6dGcZDyJCMpWEp/kQOdu2h6SQC69/1/XJiV6j5AWAQZGSPf2PpkahVM1sQMUKIAzC6DN/3H677hyM1YKrb7q6NwzDV4KwV3eWsTi41l93r7Jt2/3RWdHTbr3r1mNu9308JS8AhKSSFACe5yOf5e1+2fgFvv8+3RkYqxXX3nrt8yIQKwE8pTvLsRARRkZGtB/yY9t2H6Zg4Q033DDp7u3SzwEgLC7+LQjpkVSxb8OqlO95c5/a9tQ63TkYqxXXvPOavaYwzwfhF7qzHIkKFRKJBHxP75h/NBr9zZI1S0677bbbCrKsrfQFgBBF7wHIjeYQaJ6cwSoXEYFCfF53DsZqydU3XZ06cf+Jl0Jgo+4sh/I8D8OJYa27/AkhEI/HP3/L+245e/369QULIgp1obHq7ujtBzC7WNcPwxBD/UMg4rF/NnFCCMQjsZXNq5u36c7CWC0hIrHp/k03CxKfARDTmSWXzWE0o3ciuZQysC372lv+6ZZvF/zahb7gsXR1dU1FERt/AMikR7nxZ5NGRAhF+IDuHIzVGiEEvfmmN9+roNoBPK0jw8ENfnQ3/rZl74lH42cUo/EHStwD0Nm5u1WSKtpED9/1MDw4XKzLsxoUb4id17K85VHdORirRRs3brTqVf0HhBAfRIkeWF3HRXo0rXUFmRRSRWPRe276x5veVcz7lLQA6O7ouwygHxXr+sMDw/A1r81k1SUai+xYtmpZ0SeuMsaObvMXNp9Dkj4HoK1Y9wjDEOnRtPYlfhEr0hGYwSvveO8dHcW+V0mHAAg0r1jXzufy3PizgnPy7plP/2n763XnYKyWXXPrNb/+S/9f2gWJGwEMFPLaRIRsNovh4WGtjb9hGdl4LH77re+/9fRSNP5AqXsAOnv/FYR/LvR1FSkM9w9p35OZVSfTMtMrzlo+TQjBk0sY0+yBBx6YGnEjHwRwK4BJHeGdz+eRyWS0dvcbhuFF7Mh/3PiPN7631J8xJS0Aejp7v0qEtxb6uqPpUWTTfNofK576+rrPLl2x9E7dORhjB2z5ypaZvuvfJoS4DcCMsb6PiODkHWRzWa0PjaZpeqZtbs4b+VvuvPPOvI4MpZ4D8AuALizkNQ8s+xvk0/5YUUkpw+lTpp10euvpBe1+ZIxNzkP3PBQZsUfeICDeD2DR0V4XqhD5XB5O3kGo9DX8lm0NWrb1hTNGz/jo+g2FW9M/ESUuAHp2AOKo/wdNRGokxVv+spKIRiOPLVu97BzdORhjL7dhwwZ5xolnrCVFVwkhrgJwIoHgOi4cx9G6ha9pmr5lWb8TUrz/pvfc9Ji2IIcpcQHQmwFQV6jr+b6PxMAwP/2zkonXx97SsqLlW7pzMMaObsuWLYY34F06mh39iO/7zWEYmqXOYJpmxjTNxy3L+s+33/n2H5b6/mNRsgKgv7+/zsl6BR2oHxlKwHX0HszAaotpmvnY1OispqYmnnTCWIX4yme+stYP/etCFZ4fhuH8MAyjhXxwlEKSYRgpacid0pC/CESw8fb33F72xxyXrADo7e09SfnYU6jrea6LxGCiUJdjbMwisegjbataz9edgzE2MV/6ty9NJ0UXqFCtUkI1qVDNg8B0UlRPIIuITFIkAZAQQgohQgA+AEcIMSoMMWhKs1cI8aQK1KP9Tv9vNmzYoHU8fyJKVgB0d3cvRij/XKjrDe8fgs8H/jBNGqbUv7mprWmT7hyMMTZRJdsIiMhsLNS1nLzDjT/TKpdzvvzkk09O1Z2DMcYmqoQ7AaqCFQAZXvPPNAuDICqQ+jGsAAARiElEQVR8UTazeRljbLxKVgBIooIUAPlcHgE//bMy4OTdpqe3PXuv7hyMMTYRJewBkJMuAIiIn/5ZWXHzzk1Pbnv2ct05GGNsvEo3BwCT7wHI5/IIg4qbaMmqmFJKhK73388///yYtyJljLFyUMJJgNQw2WtkR/npn5WfIAiimWT+97pzMMbYeJSsABAkjMm8P5/NIQz4tD9WnnzHPe2pbc/+RHcOxhgbqxLOAZj4ngNEhMxotpBZGCs4J5t75dPbnv2c7hyMMTYWpesBEBMvAJy8w2P/rCI4ufwdT/1x+/W6czDG2PGUsAdATLgAyPLMf1YhiAhePvfFZ3//bLvuLIwxdiwlKwDUBIcAnLyDgJ/+WQVRoTKcwHv8qaeeatKdhTHGjqaERyQqMZEagJ/+i0cahhISnhBGTgqkAZEzpEgTIS+kcAQwTCQcIWhUmGJIkcxIUglpWkMypPx47kWKpikhZirhT0eI2YCYqiicShANEqhXJKYQhXGCiAqiiApVXJGylVIlPbK6UMIgsEUev9+27c8L29uX7NOdhzHGDleyAkAICIzz9EXP9XjP/wmQhgykYaYNKYYhMCiA/VKYe4WgLgNGh0/+rpb2lh1CiLLvWtm+fft0yhutQLA4FGohhWo+hDiJFGaqMJxGiuKBCiLj/dkqhcAL6ixy/vzkk08uaGtrS+rOwxhjhyrdaYC7eu+GwHvG857EUAKe4xYrUsUSQkAa0jekHBXS2C+l6BbADiHFn2RUPtTU1FRz5yQ//fTTCwzfuFSROouITg+VmqtCNT0Mw3ghz/2eCNu29ysrPK29vT2nNQhjjB2ilAXAxyDw/rG+PvB9DO0fKmaksiekJNMwktIweqQhniZhPGL74rEla5bs1J2tUmzfvr0egbEu8N1zBURLGKozgiA8JQyCaClzWBGrz1XOorVr145r6IQxxoqlZAVAV0fPXQLi42N9fSqRRD5XO5+Vhmn4hjQSwpA7hBS/jkjrF2e2nflrIYTSna0abdu2LR4zYheHQXhZqNTqMAgXFru3wLLsARnDIh4OYIyVg9L1AHT23gbC58fyWhWGGNg3UOxI2him6RiG0WlI4zfSMH4ho/SjpqYmnu2o2bPPPjtbeOL1gVIXqTBcFobhyWEQWoW8h23bAyLKRQBjTL/S9QDs6nmr+P/t3WuwnVdZB/BnrX1Jc+NmgaQ0tNUyQNNSoKUiDkpxuNg2II50cABhyhi5iI7MODjMyOST+sERZgR6AbWio0NRIJRbqbTMeAVKsVIuFqS0aRPSlt5yP2fvd/mhNFBykpzzrnfvnN38fp+SnP2s9XzK+e/1rrXelK5czGd33b8r9ux+dPw+zDmX/qD/QOrlb/Rzvra3snflGWeccdux7ovF+fqNXz+3jMsbR03zktH86Geb8bh64+xwOLzvMavWPuP0s09/9KZcYNmb4h6Aba+KVD52tM+VUuLuHXdF08zmynev35vv93p3pF7/y7mf/7k3jK0bN26cO9Z90Y2bbrzpV2Kc3zAej35pNBptaMZNq7s0BisG95+wdsUGKz/AsTLFY4DNrrKIvLFv776Z+uXfy72mN+jf3su9f+mvzh/YuHHj1451T0zO2c89+wsR8YWH/37zV2/e1JTmdfPzo/NH8/NPXOwWgvkD84/r9/p/HxG/NplOAY5sagGgyXlXao7+v+Pe3cv7pFRKEYPB8L7cy1/Og/Ths5591lWzcJ6eyTjznDOvjoirIyJuuOGb64dl9IejcfOq+fm5U0pTjph4x+Pm6VNpEmABUwsAedTsKvnIKwBzB+ZitAwv/un3e3O9/uCbOedPrB6uvNSzWxbyoxv/3hER77jhhhtWDfPw7eNR87r5uflnNuPmkNdh517eOv0uAR4ytT0A2/5321PG/XLHkT5z/w/vj/37lsfRv8GKwT2DXv9zJfXed/a5G790rPthdpVS8re+9q3Xzo3mfmc0Gj+7ROkNByd86uznnfnqY90bcPyaWgAo15f+bU+9/UBEWnDT1Hg8jnt23B3lGN3pmlKK/nD4g0Evf7aXV/3JxnNO/+4xaQQApmB6LwN6URrHLd8eR3/VggFg3959x+CXf4rhcLCz3+9tnUv9Led4aQsAx4mpBYCdn37Lpnzq/YOmv2rBn+/bM53NfznnMhgOb+3ltHXVcNWfeZ4PwPFoeqcAorwzRrsW/NmB/QdiPBpPbO6UUgyGg9tyHnzosXtW//lpLzxt/8QmA4AZMJUAsOPqN78oorwgjR5c8OeT+vbf7/f39ge9a4bN8J1eoAMAPzaVAJBS+b0SEWn+0BWAZtzE/n3dfSHPvTxeMRx+pUn53c953lnXdjYwADyKTDwAbL9681NLxKaIiLTAI4B9e+u//aeUYrhi+P1+r/e+M885870ppck9TwCAR4HJrwDk9OYoP5pnwQDQ/tz/YDh4YNDvf2TVcNUf28wHAIs30QDwnc+8fUUaz73p4dsG8v6dEaU5eBXA/Px8jOaXdotuShHDFSd8r98fvOusc874SNc9A8DxYKIBYE1z4DWR0pMO/sN4f+S9t0ez+tSIiNi/Z/Hf/nPO48GKwXUrBsO3nfEcG/oAoMaEHwGktx4y4V3Xxdypb4iScuxbxLW/g37//sGKweW9lb13e60uAHRjYlcBb79683NTSl9d6GfNY54Zux7/8rj/3gcWbiqlWNXbE6tGt17+c798yZsn1SMAHK8mtgKQcvr9w93smx/8Vqw8sCcOrH5hHBifEE1THrqsp19i1fjOWLP736I33rN7xYryzkn1BwDHs4msAGy/evOJKaVtEXHCYj7f9B8TabQnUvzE6b0S71+/6fLfnUR/AHC8m8gKQE6xuSzyl39ERF7ghsCU0mWdNgUAHLTgm/lqlKte3SuRfrtukLhu3UWX3dxRSwDAT+k8AOxcdeKFEXFqzRglxfu76QYAWEjnjwBKNG+oGiDFtvWr1n+yo3YAgAV0ugKw7XNvekJEXFgzRirlsnT+lqVdDwgALEmnAaA/7v1mRKyoGOJAGjd/1VU/AMDCut0DUNJv1dWXq578yg/t7KgbAOAwOgsA26/e/IyIOK9mjNTrfaCjdgCAI+huBSBXfvuP+Ma6Cy79r056AQCOqJMAULZsySnidZXDXNlFLwDA0XUSAHaes+P8KLGhYohmVNI/dtELAHB03awA5Khd/v/8hk2X3dlFLwDA0VUHgB9c8/rVUeLXa8ZIKT5c2wcAsHjVAaDMr/yNiFhTMcSDTVO21vYBACxeB48A0mtqqkvER0/adMXe+j4AgMWqCgD3Xrv5sRHx4qoOLP8DwNRVBYD9+/NFETGsGOL76y+4/F9regAAlq4qAKRoXlU1e0l/m1KUqjEAgCVrHQC2XfUHKyOll9dMPs7jf6ipBwDaaR0ABqv3vjQiVreeOaWvnHzhB29pXQ8AtNY6AJSoPPsfzcdq6gGA9loFgHL9ln6UuKBm4qaJT9TUAwDttQoAd+2580URcWLFvN88adMV366oBwAqtAoATeSq3f8pysdr6gGAOksOAKVEiohX1EzaRE8AAIBjaMkBYOdnNp8XESdXzHn7+gsvvbGiHgCotPQVgIiqs/8lxcdd/gMAx9aSA0Aq6SU1E6ZxY/kfAI6xJQWAu7desrZEnFcx3w/XrX3Kv1fUAwAdWFIAGPcHL46IQfvpytZ0/pZR+3oAoAtLCgCliarl/1Lyp2rqAYBuLC0ApHhpxVzj+ZS+WFEPAHRk0QFg+6ffdkqKeFrbiUqkL51y0aX3ta0HALqz6ACQY75u93+Ja2vqAYDuLDoAlMrjf01PAACA5WJRAaBs2ZIj4sUV8+w66UnNlyvqAYAOLSoA7HjejudG1dv/yvXp3Cvm29cDAF1aVABITar59h9RsuV/AFhGFrcHIDW/WDPJOI8/X1MPAHRrkZsA089XzHHHyRd+8JaKegCgY0cNAHdtfevpEfHkthOUiGva1gIAk3HUADDqjZ9fNUNJ11fVAwCdO2oASJFeUDNB6oe3/wHAMnPUAFCi1ASAnet/9bLvV9QDABNwxABw99ZL1qaIMyvG9+0fAJahIwaAcR6cFxG9ivH/s6IWAJiQIwaAkqqW/yNH8x819QDAZBx5D0DJv1Ax9vzc3jVfq6gHACbksAGglEiRSs0FQDduuPg9+yrqAYAJOWwAuOvTbzktIp7QduAUxfI/ACxThw0A41LOrhm42AAIAMvWYQNAiqgKAOPcCAAAsEwdfhNgKme1H7ZsP/mCD93Rvh4AmKQjnQJ4dvth03+3rwUAJm3BAHD31kvWRsRpbQctJf1P644AgIlbMADMDYbPiojUetAUN7XuCACYuAUDQG6aZ9UMWnKxAgAAy9iCAaDyBMCBdSvX31JRDwBM2IIBoJRUEwBuTudvGVXUAwATdkgAKFu25EgVrwBOYfkfAJa5QwLAXefuPDUi1rQdsET6ek1DAMDkHRIAmjx6es2AqTTuAACAZe6QAJCafHrNgKWEFQAAWOYOXQEoqSYA7Dhp0xX3VNQDAFNw6ApAxNNaj5aS438AMAMOPQaYmtYBoDTxnapuAICpeEQAKNdv6UekU9oOllL5bn1LAMCkPSIA3P3gXadGxKDtYCUlAQAAZsAjAsB4MN/++X9E9EbJIwAAmAGPCACVRwBLOWH3/1X2AwBMwSMCQN0RwLJj3cv+bk9tQwDA5D1yBaDqCGC2/A8AM+KRxwBTOa3tQKU4AQAAs+Kn7wE4ue1AKdwBAACz4mAAuPXjb3xcVLwFMErYAAgAM+JgAFg5HG6oGqk0t1V3AwBMxcEA0ER6Ss1A/TK+s74dAGAa8o//UFo//4+I0YkHdu3soB8AYAoOBoDS5JoAsD1d/NFxB/0AAFPw4wAQUfMIwPI/AMyQgwEgpZpHAOmOLpoBAKbjJ+8BaL0CkKIRAABghvxkAGi9AlA8AgCAmZIjIn5wzetXR8Tj2w6SikcAADBLckREGq9cVzNIk/L2btoBAKYhR0SUEifWDJJ6ZVs37QAA09BJABjtWukSIACYIQ9vAqwJAHs2XPyefV00AwBMRwcBoNzTSScAwNQ89AggpZ9pP0QSAABgxuSIiFy3B0AAAIAZ89AKQETrFYBS0g+7awcAmIYuNgFaAQCAGVMdAFIqVgAAYMY8FADsAQCA40ouJVKkeELrEZJTAAAwa/K9n3372ojotx0gNR4BAMCsyXvH82trBhj30r1dNQMATEfuRVMVAPpNeqCrZgCA6ciplKoA0OT9u7pqBgCYjpz6vaoAsH9lEQAAYMbkaNKaivrRaedfub+zbgCAqchN3SMA3/4BYAblCAEAAI43OWUBAACONzlKbh8AigAAALMop4pHACUJAAAwi3IT0ToA5IjdXTYDAExHTlFWty22AgAAsymnlE5oXV3Sng57AQCmJJcmrWhbnKIc6LIZAGA6cqTSegWgRAgAADCDcon2KwBRkmuAAWAG5RTFIwAAOM7kiGgdABqPAABgJuVSEQBStgIAALMop5oAYAUAAGZS5SOALAAAwAzKEdH6GKAVAACYTVUrAE4BAMBsyhExaFtcUjPXYS8AwJTkiGh9n38q6d4OewEApiSXiFtb1paS5r/XaTcAwFTkKOmzrSpLfGn9BX9zd8f9AABTkAfN3F9GxL4lV6byF923AwBMQ37iK/96e4nyrqWVlU+uu/CKf5pMSwDApOWIiJMuuuK9JcWfLqqixHW9vf3XphRlop0BABOTH/7DSRde/q5U4hURccthPntfRPzRujXrX/akiz+weyrdAQATkX76H0qJtPMzm8+LJj2/ibQu5+aBkspNo91rvrjh4vcsfa8AAAAAAAAAAAAAAAAAAAAAAAAAAAAAAAAAAAAAAAAAAAAAAAAAAAAAAAAAAAAAAAAAAAAAAAAAAAAAAAAAAAAAAAAAAAAAAAAAAAAAAAAAAAAAAAAAAAAAAAAAAAAAAAAAAAAAAAAAAAAAAAAAAAAAAAAAAAAAAAAAwAL+H1Uz2LOAHzN8AAAAAElFTkSuQmCC;fillColor=#A8DADC;strokeColor=#457B9D;fontColor=#1D3557;strokeWidth=3;" parent="WIyWlLk6GJQsqaUBKTNV-1" vertex="1">
          <mxGeometry x="18" y="11" width="63" height="63" as="geometry" />
        </mxCell>
        <mxCell id="O4sXFlbaif_imBeeRptx-4" value="&lt;h1&gt;&lt;font style=&quot;font-size: 32px;&quot; face=&quot;Georgia&quot;&gt;Diglog&lt;/font&gt;&lt;/h1&gt;" style="text;html=1;align=center;verticalAlign=middle;resizable=0;points=[];autosize=1;strokeColor=none;fillColor=none;labelBackgroundColor=none;fontColor=#1D3557;strokeWidth=3;" parent="WIyWlLk6GJQsqaUBKTNV-1" vertex="1">
          <mxGeometry x="105" y="11" width="124" height="83" as="geometry" />
        </mxCell>
        <mxCell id="O4sXFlbaif_imBeeRptx-5" value="&lt;h2&gt;&lt;font style=&quot;font-size: 19px; font-weight: normal;&quot; face=&quot;Georgia&quot;&gt;Class Diagram&lt;/font&gt;&lt;/h2&gt;" style="text;html=1;align=center;verticalAlign=middle;resizable=0;points=[];autosize=1;strokeColor=none;fillColor=none;labelBackgroundColor=none;fontColor=#1D3557;strokeWidth=3;" parent="WIyWlLk6GJQsqaUBKTNV-1" vertex="1">
          <mxGeometry x="93" y="62" width="139" height="65" as="geometry" />
        </mxCell>
        <mxCell id="O4sXFlbaif_imBeeRptx-6" value="User" style="swimlane;fontStyle=1;align=center;verticalAlign=top;childLayout=stackLayout;horizontal=1;startSize=26;horizontalStack=0;resizeParent=1;resizeParentMax=0;resizeLast=0;collapsible=1;marginBottom=0;whiteSpace=wrap;html=1;labelBackgroundColor=none;fillColor=#A8DADC;strokeColor=#457B9D;fontColor=#1D3557;" parent="WIyWlLk6GJQsqaUBKTNV-1" vertex="1">
          <mxGeometry x="144" y="141" width="187" height="288" as="geometry" />
        </mxCell>
        <mxCell id="O4sXFlbaif_imBeeRptx-7" value="+ first_name: str&lt;div&gt;+ last_name: str&lt;/div&gt;&lt;div&gt;&lt;u&gt;+ username: str&lt;/u&gt;&lt;/div&gt;&lt;div&gt;+ email: email field (str)&lt;/div&gt;&lt;div&gt;+ last_login: date time field&lt;/div&gt;&lt;div&gt;+ join_date: date time field&lt;/div&gt;&lt;div&gt;+ is_staff: bool&lt;/div&gt;&lt;div&gt;+ is_active: bool&lt;/div&gt;" style="text;strokeColor=none;fillColor=none;align=left;verticalAlign=top;spacingLeft=4;spacingRight=4;overflow=hidden;rotatable=0;points=[[0,0.5],[1,0.5]];portConstraint=eastwest;whiteSpace=wrap;html=1;labelBackgroundColor=none;fontColor=#1D3557;" parent="O4sXFlbaif_imBeeRptx-6" vertex="1">
          <mxGeometry y="26" width="187" height="136" as="geometry" />
        </mxCell>
        <mxCell id="O4sXFlbaif_imBeeRptx-8" value="" style="line;strokeWidth=1;fillColor=none;align=left;verticalAlign=middle;spacingTop=-1;spacingLeft=3;spacingRight=3;rotatable=0;labelPosition=right;points=[];portConstraint=eastwest;strokeColor=#457B9D;labelBackgroundColor=none;fontColor=#1D3557;" parent="O4sXFlbaif_imBeeRptx-6" vertex="1">
          <mxGeometry y="162" width="187" height="8" as="geometry" />
        </mxCell>
        <mxCell id="O4sXFlbaif_imBeeRptx-9" value="- login(request)&lt;div&gt;- logout(request.user)&lt;/div&gt;&lt;div&gt;- register(request)&lt;/div&gt;&lt;div&gt;- save()&lt;/div&gt;&lt;div&gt;+ show_info(user)&lt;/div&gt;&lt;div&gt;- edit_settings(request.user)&lt;/div&gt;&lt;div&gt;- email_exist(user.email)&lt;/div&gt;&lt;div&gt;&lt;br&gt;&lt;/div&gt;" style="text;strokeColor=none;fillColor=none;align=left;verticalAlign=top;spacingLeft=4;spacingRight=4;overflow=hidden;rotatable=0;points=[[0,0.5],[1,0.5]];portConstraint=eastwest;whiteSpace=wrap;html=1;labelBackgroundColor=none;fontColor=#1D3557;" parent="O4sXFlbaif_imBeeRptx-6" vertex="1">
          <mxGeometry y="170" width="187" height="118" as="geometry" />
        </mxCell>
        <mxCell id="O4sXFlbaif_imBeeRptx-10" value="Post" style="swimlane;fontStyle=1;align=center;verticalAlign=top;childLayout=stackLayout;horizontal=1;startSize=26;horizontalStack=0;resizeParent=1;resizeParentMax=0;resizeLast=0;collapsible=1;marginBottom=0;whiteSpace=wrap;html=1;labelBackgroundColor=none;fillColor=#A8DADC;strokeColor=#457B9D;fontColor=#1D3557;" parent="WIyWlLk6GJQsqaUBKTNV-1" vertex="1">
          <mxGeometry x="678" y="170" width="190" height="262" as="geometry" />
        </mxCell>
        <mxCell id="O4sXFlbaif_imBeeRptx-11" value="+ title: str&lt;div&gt;&lt;u&gt;+ author: foreign key - str (&lt;font color=&quot;#770d0d&quot; style=&quot;--darkreader-inline-color: #ff8585;&quot; data-darkreader-inline-color=&quot;&quot;&gt;User&lt;/font&gt;)&lt;/u&gt;&lt;/div&gt;&lt;div&gt;&lt;u&gt;+ slug: slug field (base on title)&lt;/u&gt;&lt;/div&gt;&lt;div&gt;+ body: str (RichTextField)&lt;/div&gt;&lt;div&gt;+ header_image: image field&lt;/div&gt;&lt;div&gt;+ pub_day: date time field&lt;/div&gt;&lt;div&gt;+ update_date: date time field&lt;/div&gt;&lt;div&gt;&lt;u&gt;+ category: str (&lt;font color=&quot;#870303&quot; style=&quot;--darkreader-inline-color: #ff7474;&quot; data-darkreader-inline-color=&quot;&quot;&gt;Category&lt;/font&gt;)&lt;/u&gt;&lt;/div&gt;&lt;div&gt;+ short_desc: str&lt;/div&gt;&lt;div&gt;&lt;u&gt;+ likes: ManyToManyField (&lt;font style=&quot;--darkreader-inline-color: #f58d8d;&quot; data-darkreader-inline-color=&quot;&quot; color=&quot;#711919&quot;&gt;User&lt;/font&gt;)&lt;/u&gt;&lt;/div&gt;&lt;div&gt;&lt;br&gt;&lt;/div&gt;" style="text;strokeColor=none;fillColor=none;align=left;verticalAlign=top;spacingLeft=4;spacingRight=4;overflow=hidden;rotatable=0;points=[[0,0.5],[1,0.5]];portConstraint=eastwest;whiteSpace=wrap;html=1;labelBackgroundColor=none;fontColor=#1D3557;" parent="O4sXFlbaif_imBeeRptx-10" vertex="1">
          <mxGeometry y="26" width="190" height="171" as="geometry" />
        </mxCell>
        <mxCell id="O4sXFlbaif_imBeeRptx-12" value="" style="line;strokeWidth=1;fillColor=none;align=left;verticalAlign=middle;spacingTop=-1;spacingLeft=3;spacingRight=3;rotatable=0;labelPosition=right;points=[];portConstraint=eastwest;strokeColor=#457B9D;labelBackgroundColor=none;fontColor=#1D3557;" parent="O4sXFlbaif_imBeeRptx-10" vertex="1">
          <mxGeometry y="197" width="190" height="8" as="geometry" />
        </mxCell>
        <mxCell id="O4sXFlbaif_imBeeRptx-13" value="+ create_post(info)&lt;div&gt;+ edit()&lt;/div&gt;&lt;div&gt;+ delete()&lt;/div&gt;" style="text;strokeColor=none;fillColor=none;align=left;verticalAlign=top;spacingLeft=4;spacingRight=4;overflow=hidden;rotatable=0;points=[[0,0.5],[1,0.5]];portConstraint=eastwest;whiteSpace=wrap;html=1;labelBackgroundColor=none;fontColor=#1D3557;" parent="O4sXFlbaif_imBeeRptx-10" vertex="1">
          <mxGeometry y="205" width="190" height="57" as="geometry" />
        </mxCell>
        <mxCell id="O4sXFlbaif_imBeeRptx-15" value="Category" style="swimlane;fontStyle=1;align=center;verticalAlign=top;childLayout=stackLayout;horizontal=1;startSize=26;horizontalStack=0;resizeParent=1;resizeParentMax=0;resizeLast=0;collapsible=1;marginBottom=0;whiteSpace=wrap;html=1;labelBackgroundColor=none;fillColor=#A8DADC;strokeColor=#457B9D;fontColor=#1D3557;" parent="WIyWlLk6GJQsqaUBKTNV-1" vertex="1">
          <mxGeometry x="955" y="522" width="160" height="132" as="geometry" />
        </mxCell>
        <mxCell id="O4sXFlbaif_imBeeRptx-16" value="+ name: str&lt;div&gt;+ &lt;u&gt;post: slug (title)&lt;/u&gt;&lt;/div&gt;" style="text;strokeColor=none;fillColor=none;align=left;verticalAlign=top;spacingLeft=4;spacingRight=4;overflow=hidden;rotatable=0;points=[[0,0.5],[1,0.5]];portConstraint=eastwest;whiteSpace=wrap;html=1;labelBackgroundColor=none;fontColor=#1D3557;" parent="O4sXFlbaif_imBeeRptx-15" vertex="1">
          <mxGeometry y="26" width="160" height="46" as="geometry" />
        </mxCell>
        <mxCell id="O4sXFlbaif_imBeeRptx-17" value="" style="line;strokeWidth=1;fillColor=none;align=left;verticalAlign=middle;spacingTop=-1;spacingLeft=3;spacingRight=3;rotatable=0;labelPosition=right;points=[];portConstraint=eastwest;strokeColor=#457B9D;labelBackgroundColor=none;fontColor=#1D3557;" parent="O4sXFlbaif_imBeeRptx-15" vertex="1">
          <mxGeometry y="72" width="160" height="8" as="geometry" />
        </mxCell>
        <mxCell id="O4sXFlbaif_imBeeRptx-18" value="- post_name(post, cat)&lt;div&gt;- count_cat(post, cat)&lt;/div&gt;" style="text;strokeColor=none;fillColor=none;align=left;verticalAlign=top;spacingLeft=4;spacingRight=4;overflow=hidden;rotatable=0;points=[[0,0.5],[1,0.5]];portConstraint=eastwest;whiteSpace=wrap;html=1;labelBackgroundColor=none;fontColor=#1D3557;" parent="O4sXFlbaif_imBeeRptx-15" vertex="1">
          <mxGeometry y="80" width="160" height="52" as="geometry" />
        </mxCell>
        <mxCell id="O4sXFlbaif_imBeeRptx-19" value="View" style="swimlane;fontStyle=1;align=center;verticalAlign=top;childLayout=stackLayout;horizontal=1;startSize=26;horizontalStack=0;resizeParent=1;resizeParentMax=0;resizeLast=0;collapsible=1;marginBottom=0;whiteSpace=wrap;html=1;labelBackgroundColor=none;fillColor=#A8DADC;strokeColor=#457B9D;fontColor=#1D3557;" parent="WIyWlLk6GJQsqaUBKTNV-1" vertex="1">
          <mxGeometry x="412" y="200" width="160" height="184" as="geometry" />
        </mxCell>
        <mxCell id="O4sXFlbaif_imBeeRptx-20" value="&lt;u&gt;+ user: str&lt;/u&gt;&lt;div&gt;&lt;u&gt;+ post_id: pk&lt;/u&gt;&lt;/div&gt;" style="text;strokeColor=none;fillColor=none;align=left;verticalAlign=top;spacingLeft=4;spacingRight=4;overflow=hidden;rotatable=0;points=[[0,0.5],[1,0.5]];portConstraint=eastwest;whiteSpace=wrap;html=1;labelBackgroundColor=none;fontColor=#1D3557;" parent="O4sXFlbaif_imBeeRptx-19" vertex="1">
          <mxGeometry y="26" width="160" height="50" as="geometry" />
        </mxCell>
        <mxCell id="O4sXFlbaif_imBeeRptx-21" value="" style="line;strokeWidth=1;fillColor=none;align=left;verticalAlign=middle;spacingTop=-1;spacingLeft=3;spacingRight=3;rotatable=0;labelPosition=right;points=[];portConstraint=eastwest;strokeColor=#457B9D;labelBackgroundColor=none;fontColor=#1D3557;" parent="O4sXFlbaif_imBeeRptx-19" vertex="1">
          <mxGeometry y="76" width="160" height="8" as="geometry" />
        </mxCell>
        <mxCell id="O4sXFlbaif_imBeeRptx-22" value="- login(request)&lt;div&gt;- logout(request.user)&lt;/div&gt;&lt;div&gt;- register(request)&lt;/div&gt;&lt;div&gt;- save()&lt;/div&gt;&lt;div&gt;+ show_info(user)&lt;/div&gt;&lt;div&gt;- edit_info(request.user)&lt;/div&gt;" style="text;strokeColor=none;fillColor=none;align=left;verticalAlign=top;spacingLeft=4;spacingRight=4;overflow=hidden;rotatable=0;points=[[0,0.5],[1,0.5]];portConstraint=eastwest;whiteSpace=wrap;html=1;labelBackgroundColor=none;fontColor=#1D3557;" parent="O4sXFlbaif_imBeeRptx-19" vertex="1">
          <mxGeometry y="84" width="160" height="100" as="geometry" />
        </mxCell>
        <mxCell id="O4sXFlbaif_imBeeRptx-23" value="Comment" style="swimlane;fontStyle=1;align=center;verticalAlign=top;childLayout=stackLayout;horizontal=1;startSize=26;horizontalStack=0;resizeParent=1;resizeParentMax=0;resizeLast=0;collapsible=1;marginBottom=0;whiteSpace=wrap;html=1;labelBackgroundColor=none;fillColor=#A8DADC;strokeColor=#457B9D;fontColor=#1D3557;" parent="WIyWlLk6GJQsqaUBKTNV-1" vertex="1">
          <mxGeometry x="604" y="582" width="199" height="170" as="geometry" />
        </mxCell>
        <mxCell id="O4sXFlbaif_imBeeRptx-24" value="&lt;u&gt;+ author: Foreign key - str (&lt;font style=&quot;--darkreader-inline-color: #ff7b7b;&quot; data-darkreader-inline-color=&quot;&quot; color=&quot;#7e0202&quot;&gt;User&lt;/font&gt;)&lt;/u&gt;&lt;div&gt;&lt;u&gt;+ post: Foreign key - str (&lt;font style=&quot;--darkreader-inline-color: #ff8181;&quot; data-darkreader-inline-color=&quot;&quot; color=&quot;#760404&quot;&gt;Post&lt;/font&gt;)&lt;/u&gt;&lt;/div&gt;&lt;div&gt;+ body: str&lt;/div&gt;&lt;div&gt;+ pub_date: date time field&lt;/div&gt;" style="text;strokeColor=none;fillColor=none;align=left;verticalAlign=top;spacingLeft=4;spacingRight=4;overflow=hidden;rotatable=0;points=[[0,0.5],[1,0.5]];portConstraint=eastwest;whiteSpace=wrap;html=1;labelBackgroundColor=none;fontColor=#1D3557;" parent="O4sXFlbaif_imBeeRptx-23" vertex="1">
          <mxGeometry y="26" width="199" height="76" as="geometry" />
        </mxCell>
        <mxCell id="O4sXFlbaif_imBeeRptx-25" value="" style="line;strokeWidth=1;fillColor=none;align=left;verticalAlign=middle;spacingTop=-1;spacingLeft=3;spacingRight=3;rotatable=0;labelPosition=right;points=[];portConstraint=eastwest;strokeColor=#457B9D;labelBackgroundColor=none;fontColor=#1D3557;" parent="O4sXFlbaif_imBeeRptx-23" vertex="1">
          <mxGeometry y="102" width="199" height="8" as="geometry" />
        </mxCell>
        <mxCell id="O4sXFlbaif_imBeeRptx-26" value="+ save(post, comment)&lt;div&gt;+ edit(post, comment)&lt;/div&gt;&lt;div&gt;+ delete(post, comment)&lt;/div&gt;" style="text;strokeColor=none;fillColor=none;align=left;verticalAlign=top;spacingLeft=4;spacingRight=4;overflow=hidden;rotatable=0;points=[[0,0.5],[1,0.5]];portConstraint=eastwest;whiteSpace=wrap;html=1;labelBackgroundColor=none;fontColor=#1D3557;" parent="O4sXFlbaif_imBeeRptx-23" vertex="1">
          <mxGeometry y="110" width="199" height="60" as="geometry" />
        </mxCell>
        <mxCell id="jKLF3p9kJyowhTWAXONv-0" value="Like" style="swimlane;fontStyle=1;align=center;verticalAlign=top;childLayout=stackLayout;horizontal=1;startSize=26;horizontalStack=0;resizeParent=1;resizeParentMax=0;resizeLast=0;collapsible=1;marginBottom=0;whiteSpace=wrap;html=1;labelBackgroundColor=none;fillColor=#A8DADC;strokeColor=#457B9D;fontColor=#1D3557;" vertex="1" parent="WIyWlLk6GJQsqaUBKTNV-1">
          <mxGeometry x="964" y="207" width="160" height="85" as="geometry" />
        </mxCell>
        <mxCell id="jKLF3p9kJyowhTWAXONv-1" value="+ like: int" style="text;strokeColor=none;fillColor=none;align=left;verticalAlign=top;spacingLeft=4;spacingRight=4;overflow=hidden;rotatable=0;points=[[0,0.5],[1,0.5]];portConstraint=eastwest;whiteSpace=wrap;html=1;labelBackgroundColor=none;fontColor=#1D3557;" vertex="1" parent="jKLF3p9kJyowhTWAXONv-0">
          <mxGeometry y="26" width="160" height="27" as="geometry" />
        </mxCell>
        <mxCell id="jKLF3p9kJyowhTWAXONv-2" value="" style="line;strokeWidth=1;fillColor=none;align=left;verticalAlign=middle;spacingTop=-1;spacingLeft=3;spacingRight=3;rotatable=0;labelPosition=right;points=[];portConstraint=eastwest;strokeColor=#457B9D;labelBackgroundColor=none;fontColor=#1D3557;" vertex="1" parent="jKLF3p9kJyowhTWAXONv-0">
          <mxGeometry y="53" width="160" height="8" as="geometry" />
        </mxCell>
        <mxCell id="jKLF3p9kJyowhTWAXONv-3" value="- total_likes(post.likes)" style="text;strokeColor=none;fillColor=none;align=left;verticalAlign=top;spacingLeft=4;spacingRight=4;overflow=hidden;rotatable=0;points=[[0,0.5],[1,0.5]];portConstraint=eastwest;whiteSpace=wrap;html=1;labelBackgroundColor=none;fontColor=#1D3557;" vertex="1" parent="jKLF3p9kJyowhTWAXONv-0">
          <mxGeometry y="61" width="160" height="24" as="geometry" />
        </mxCell>
        <mxCell id="jKLF3p9kJyowhTWAXONv-4" value="Profile" style="swimlane;fontStyle=1;align=center;verticalAlign=top;childLayout=stackLayout;horizontal=1;startSize=26;horizontalStack=0;resizeParent=1;resizeParentMax=0;resizeLast=0;collapsible=1;marginBottom=0;whiteSpace=wrap;html=1;labelBackgroundColor=none;fillColor=#A8DADC;strokeColor=#457B9D;fontColor=#1D3557;" vertex="1" parent="WIyWlLk6GJQsqaUBKTNV-1">
          <mxGeometry x="173" y="489" width="187" height="203" as="geometry" />
        </mxCell>
        <mxCell id="jKLF3p9kJyowhTWAXONv-5" value="&lt;div&gt;&lt;u&gt;+ user: str (&lt;font color=&quot;#720808&quot; style=&quot;--darkreader-inline-color: #ff8787;&quot; data-darkreader-inline-color=&quot;&quot;&gt;User&lt;/font&gt;)&lt;/u&gt;&lt;/div&gt;+ bio: str&lt;div&gt;+ profile_img: image field&lt;/div&gt;&lt;div&gt;+ website: str&lt;/div&gt;&lt;div&gt;+ instagram_link: str&lt;/div&gt;&lt;div&gt;+ twitter_link: str&lt;/div&gt;&lt;div&gt;+ slug: slug field&lt;/div&gt;" style="text;strokeColor=none;fillColor=none;align=left;verticalAlign=top;spacingLeft=4;spacingRight=4;overflow=hidden;rotatable=0;points=[[0,0.5],[1,0.5]];portConstraint=eastwest;whiteSpace=wrap;html=1;labelBackgroundColor=none;fontColor=#1D3557;" vertex="1" parent="jKLF3p9kJyowhTWAXONv-4">
          <mxGeometry y="26" width="187" height="119" as="geometry" />
        </mxCell>
        <mxCell id="jKLF3p9kJyowhTWAXONv-6" value="" style="line;strokeWidth=1;fillColor=none;align=left;verticalAlign=middle;spacingTop=-1;spacingLeft=3;spacingRight=3;rotatable=0;labelPosition=right;points=[];portConstraint=eastwest;strokeColor=#457B9D;labelBackgroundColor=none;fontColor=#1D3557;" vertex="1" parent="jKLF3p9kJyowhTWAXONv-4">
          <mxGeometry y="145" width="187" height="8" as="geometry" />
        </mxCell>
        <mxCell id="jKLF3p9kJyowhTWAXONv-7" value="&lt;div&gt;- update_profile(request.user)&lt;/div&gt;&lt;div&gt;- edit_profile(requst.user)&lt;/div&gt;&lt;div&gt;&lt;br&gt;&lt;/div&gt;" style="text;strokeColor=none;fillColor=none;align=left;verticalAlign=top;spacingLeft=4;spacingRight=4;overflow=hidden;rotatable=0;points=[[0,0.5],[1,0.5]];portConstraint=eastwest;whiteSpace=wrap;html=1;labelBackgroundColor=none;fontColor=#1D3557;" vertex="1" parent="jKLF3p9kJyowhTWAXONv-4">
          <mxGeometry y="153" width="187" height="50" as="geometry" />
        </mxCell>
        <mxCell id="jKLF3p9kJyowhTWAXONv-10" style="edgeStyle=orthogonalEdgeStyle;rounded=0;orthogonalLoop=1;jettySize=auto;html=1;entryX=-0.022;entryY=0.292;entryDx=0;entryDy=0;entryPerimeter=0;endArrow=block;endFill=0;strokeWidth=1.5;" edge="1" parent="WIyWlLk6GJQsqaUBKTNV-1" source="jKLF3p9kJyowhTWAXONv-4" target="O4sXFlbaif_imBeeRptx-7">
          <mxGeometry relative="1" as="geometry">
            <Array as="points">
              <mxPoint x="103" y="534" />
              <mxPoint x="103" y="207" />
            </Array>
          </mxGeometry>
        </mxCell>
        <mxCell id="jKLF3p9kJyowhTWAXONv-12" style="edgeStyle=orthogonalEdgeStyle;rounded=0;orthogonalLoop=1;jettySize=auto;html=1;entryX=0.501;entryY=1.049;entryDx=0;entryDy=0;entryPerimeter=0;endArrow=diamond;endFill=0;strokeWidth=1.5;" edge="1" parent="WIyWlLk6GJQsqaUBKTNV-1" source="O4sXFlbaif_imBeeRptx-23" target="O4sXFlbaif_imBeeRptx-13">
          <mxGeometry relative="1" as="geometry">
            <Array as="points">
              <mxPoint x="704" y="507" />
              <mxPoint x="773" y="507" />
            </Array>
          </mxGeometry>
        </mxCell>
        <mxCell id="jKLF3p9kJyowhTWAXONv-13" style="edgeStyle=orthogonalEdgeStyle;rounded=0;orthogonalLoop=1;jettySize=auto;html=1;entryX=-0.026;entryY=0.317;entryDx=0;entryDy=0;entryPerimeter=0;strokeWidth=1.5;" edge="1" parent="WIyWlLk6GJQsqaUBKTNV-1" source="O4sXFlbaif_imBeeRptx-20" target="O4sXFlbaif_imBeeRptx-11">
          <mxGeometry relative="1" as="geometry" />
        </mxCell>
        <mxCell id="jKLF3p9kJyowhTWAXONv-14" style="edgeStyle=orthogonalEdgeStyle;rounded=0;orthogonalLoop=1;jettySize=auto;html=1;entryX=1.024;entryY=0.301;entryDx=0;entryDy=0;entryPerimeter=0;strokeWidth=1.5;" edge="1" parent="WIyWlLk6GJQsqaUBKTNV-1" source="O4sXFlbaif_imBeeRptx-20" target="O4sXFlbaif_imBeeRptx-7">
          <mxGeometry relative="1" as="geometry">
            <Array as="points">
              <mxPoint x="401" y="251" />
              <mxPoint x="401" y="208" />
              <mxPoint x="372" y="208" />
            </Array>
          </mxGeometry>
        </mxCell>
        <mxCell id="jKLF3p9kJyowhTWAXONv-16" style="edgeStyle=orthogonalEdgeStyle;rounded=0;orthogonalLoop=1;jettySize=auto;html=1;entryX=1;entryY=0.5;entryDx=0;entryDy=0;strokeWidth=1.5;" edge="1" parent="WIyWlLk6GJQsqaUBKTNV-1" source="O4sXFlbaif_imBeeRptx-11" target="O4sXFlbaif_imBeeRptx-7">
          <mxGeometry relative="1" as="geometry">
            <Array as="points">
              <mxPoint x="622" y="339" />
              <mxPoint x="622" y="427" />
              <mxPoint x="367" y="427" />
              <mxPoint x="367" y="235" />
            </Array>
          </mxGeometry>
        </mxCell>
        <mxCell id="jKLF3p9kJyowhTWAXONv-17" style="edgeStyle=orthogonalEdgeStyle;rounded=0;orthogonalLoop=1;jettySize=auto;html=1;entryX=1.009;entryY=0.676;entryDx=0;entryDy=0;entryPerimeter=0;endArrow=diamond;endFill=0;strokeWidth=1.5;" edge="1" parent="WIyWlLk6GJQsqaUBKTNV-1" source="O4sXFlbaif_imBeeRptx-15" target="O4sXFlbaif_imBeeRptx-11">
          <mxGeometry relative="1" as="geometry" />
        </mxCell>
        <mxCell id="jKLF3p9kJyowhTWAXONv-22" style="edgeStyle=orthogonalEdgeStyle;rounded=0;orthogonalLoop=1;jettySize=auto;html=1;exitX=0;exitY=0.5;exitDx=0;exitDy=0;entryX=0.997;entryY=0.294;entryDx=0;entryDy=0;entryPerimeter=0;strokeWidth=1.5;" edge="1" parent="WIyWlLk6GJQsqaUBKTNV-1" source="jKLF3p9kJyowhTWAXONv-1" target="O4sXFlbaif_imBeeRptx-11">
          <mxGeometry relative="1" as="geometry" />
        </mxCell>
        <mxCell id="jKLF3p9kJyowhTWAXONv-24" style="edgeStyle=orthogonalEdgeStyle;rounded=0;orthogonalLoop=1;jettySize=auto;html=1;entryX=0.512;entryY=1.008;entryDx=0;entryDy=0;entryPerimeter=0;" edge="1" parent="WIyWlLk6GJQsqaUBKTNV-1" source="O4sXFlbaif_imBeeRptx-24" target="O4sXFlbaif_imBeeRptx-9">
          <mxGeometry relative="1" as="geometry">
            <Array as="points">
              <mxPoint x="538" y="646" />
              <mxPoint x="538" y="474" />
              <mxPoint x="240" y="474" />
            </Array>
          </mxGeometry>
        </mxCell>
      </root>
    </mxGraphModel>
  </diagram>
</mxfile>
